<svg width="24" height="24" viewBox="0 0 24 24"  xmlns="http://www.w3.org/2000/svg">
<path fill-rule="evenodd" clip-rule="evenodd" d="M6 3C6.41421 3 6.75 3.33579 6.75 3.75L6.75 12.878C7.62389 13.1869 8.25 14.0203 8.25 15C8.25 15.9797 7.62389 16.8131 6.75 17.122V20.25C6.75 20.6642 6.41421 21 6 21C5.58579 21 5.25 20.6642 5.25 20.25L5.25 17.122C4.37611 16.8131 3.75 15.9797 3.75 15C3.75 14.0203 4.37611 13.1869 5.25 12.878L5.25 3.75C5.25 3.33579 5.58579 3 6 3ZM6 14.25C5.58579 14.25 5.25 14.5858 5.25 15C5.25 15.4142 5.58579 15.75 6 15.75C6.41421 15.75 6.75 15.4142 6.75 15C6.75 14.5858 6.41421 14.25 6 14.25Z" />
<path fill-rule="evenodd" clip-rule="evenodd" d="M12 3C12.4142 3 12.75 3.33579 12.75 3.75V6.87803C13.6239 7.18691 14.25 8.02034 14.25 9C14.25 9.97966 13.6239 10.8131 12.75 11.122V20.25C12.75 20.6642 12.4142 21 12 21C11.5858 21 11.25 20.6642 11.25 20.25V11.122C10.3761 10.8131 9.75 9.97966 9.75 9C9.75 8.02034 10.3761 7.18691 11.25 6.87803V3.75C11.25 3.33579 11.5858 3 12 3ZM12 8.25C11.5858 8.25 11.25 8.58579 11.25 9C11.25 9.41421 11.5858 9.75 12 9.75C12.4142 9.75 12.75 9.41421 12.75 9C12.75 8.58579 12.4142 8.25 12 8.25Z" />
<path fill-rule="evenodd" clip-rule="evenodd" d="M18 3C18.4142 3 18.75 3.33579 18.75 3.75V12.878C19.6239 13.1869 20.25 14.0203 20.25 15C20.25 15.9797 19.6239 16.8131 18.75 17.122L18.75 20.25C18.75 20.6642 18.4142 21 18 21C17.5858 21 17.25 20.6642 17.25 20.25L17.25 17.122C16.3761 16.8131 15.75 15.9797 15.75 15C15.75 14.0203 16.3761 13.1869 17.25 12.878V3.75C17.25 3.33579 17.5858 3 18 3ZM18 14.25C17.5858 14.25 17.25 14.5858 17.25 15C17.25 15.4142 17.5858 15.75 18 15.75C18.4142 15.75 18.75 15.4142 18.75 15C18.75 14.5858 18.4142 14.25 18 14.25Z" />
</svg>
