<svg width="24" height="24" viewBox="0 0 24 24"  xmlns="http://www.w3.org/2000/svg">
<path d="M12 9.75C12.4142 9.75 12.75 10.0858 12.75 10.5V15.4393L14.4697 13.7197C14.7626 13.4268 15.2374 13.4268 15.5303 13.7197C15.8232 14.0126 15.8232 14.4874 15.5303 14.7803L12.5303 17.7803C12.2374 18.0732 11.7626 18.0732 11.4697 17.7803L8.46967 14.7803C8.17678 14.4874 8.17678 14.0126 8.46967 13.7197C8.76256 13.4268 9.23744 13.4268 9.53033 13.7197L11.25 15.4393V10.5C11.25 10.0858 11.5858 9.75 12 9.75Z" />
<path fill-rule="evenodd" clip-rule="evenodd" d="M1.5 4.875C1.5 3.83947 2.33947 3 3.375 3H20.625C21.6605 3 22.5 3.83947 22.5 4.875V6.375C22.5 7.29657 21.8351 8.06285 20.9589 8.22035L20.3733 18.1762C20.28 19.7619 18.9669 21 17.3785 21H6.62154C5.03311 21 3.71999 19.7619 3.62671 18.1762L3.04108 8.22035C2.16485 8.06285 1.5 7.29657 1.5 6.375V4.875ZM3.75659 6.75C3.75266 6.74997 3.74873 6.74997 3.74479 6.75H3.375C3.16789 6.75 3 6.58211 3 6.375V4.875C3 4.66789 3.16789 4.5 3.375 4.5H20.625C20.8321 4.5 21 4.66789 21 4.875V6.375C21 6.58211 20.8321 6.75 20.625 6.75H20.2552C20.2513 6.74997 20.2473 6.74997 20.2434 6.75H3.75659ZM4.54541 8.25L5.12412 18.0881C5.17076 18.8809 5.82732 19.5 6.62154 19.5H17.3785C18.1727 19.5 18.8292 18.8809 18.8759 18.0881L19.4546 8.25H4.54541Z" />
</svg>
