<svg width="24" height="24" viewBox="0 0 24 24"  xmlns="http://www.w3.org/2000/svg">
<path d="M20.2407 3.7522C20.2407 4.16641 19.9049 4.5022 19.4907 4.5022L8.98968 4.5022L8.98968 18.4412L11.4597 15.9715C11.7527 15.6786 12.2275 15.6786 12.5204 15.9715C12.8133 16.2644 12.8132 16.7393 12.5203 17.0322L8.76998 20.7821C8.47709 21.0749 8.00227 21.0749 7.70938 20.7821L3.95902 17.0322C3.66611 16.7393 3.66608 16.2644 3.95895 15.9715C4.25183 15.6786 4.7267 15.6786 5.01961 15.9715L7.48968 18.4412L7.48968 3.7522C7.48968 3.33798 7.82547 3.0022 8.23968 3.0022L19.4907 3.0022C19.9049 3.0022 20.2407 3.33798 20.2407 3.7522Z" />
</svg>
