<svg width="24" height="24" viewBox="0 0 24 24"  xmlns="http://www.w3.org/2000/svg">
<path fill-rule="evenodd" clip-rule="evenodd" d="M4.84836 2.771C7.18302 2.42773 9.57113 2.25 12.0003 2.25C14.4292 2.25 16.8171 2.4277 19.1516 2.77091C21.1299 3.06177 22.5 4.79445 22.5 6.74056V12.7595C22.5 14.7056 21.1299 16.4382 19.1516 16.7291C18.0669 16.8886 16.9706 17.0123 15.864 17.0991C15.6203 17.1182 15.4047 17.2451 15.276 17.4381L12.624 21.416C12.4849 21.6247 12.2508 21.75 12 21.75C11.7492 21.75 11.5151 21.6247 11.376 21.416L8.72397 17.438C8.5953 17.245 8.37967 17.1182 8.13599 17.099C7.02939 17.0122 5.93309 16.8885 4.84836 16.729C2.87004 16.4381 1.5 14.7054 1.5 12.7593V6.74064C1.5 4.79455 2.87004 3.06188 4.84836 2.771ZM12.0003 3.75C9.64439 3.75 7.32921 3.92236 5.06657 4.25505C3.87679 4.42999 3 5.48457 3 6.74064V12.7593C3 14.0154 3.87679 15.07 5.06656 15.2449C6.11787 15.3995 7.18051 15.5195 8.25329 15.6036C8.94318 15.6577 9.58127 16.0198 9.97204 16.606L12 19.6479L14.0279 16.606C14.4187 16.0199 15.0568 15.6578 15.7467 15.6037C16.8195 15.5196 17.8821 15.3996 18.9334 15.2451C20.1232 15.0701 21 14.0155 21 12.7595V6.74056C21 5.48447 20.1232 4.42988 18.9334 4.25496C16.6709 3.92233 14.356 3.75 12.0003 3.75Z" />
</svg>
