<svg width="24" height="24" viewBox="0 0 24 24"  xmlns="http://www.w3.org/2000/svg">
<path fill-rule="evenodd" clip-rule="evenodd" d="M10.72 11.47C10.5796 11.6107 10.5007 11.8013 10.5007 12C10.5007 12.1988 10.5796 12.3894 10.72 12.53L18.22 20.03C18.2887 20.1037 18.3715 20.1628 18.4635 20.2038C18.5555 20.2448 18.6548 20.2668 18.7555 20.2686C18.8562 20.2704 18.9562 20.2519 19.0496 20.2142C19.143 20.1764 19.2278 20.1203 19.299 20.0491C19.3703 19.9778 19.4264 19.893 19.4641 19.7996C19.5019 19.7062 19.5204 19.6062 19.5186 19.5055C19.5168 19.4048 19.4948 19.3055 19.4538 19.2135C19.4128 19.1215 19.3537 19.0387 19.28 18.97L12.31 12L19.28 5.03003C19.4125 4.88785 19.4846 4.69981 19.4812 4.50551C19.4778 4.31121 19.399 4.12582 19.2616 3.98841C19.1242 3.85099 18.9388 3.77228 18.7445 3.76885C18.5502 3.76543 18.3622 3.83755 18.22 3.97003L10.72 11.47Z" />
<path fill-rule="evenodd" clip-rule="evenodd" d="M4.72001 11.47C4.57956 11.6107 4.50067 11.8013 4.50067 12C4.50067 12.1988 4.57956 12.3894 4.72001 12.53L12.22 20.03C12.2887 20.1037 12.3715 20.1628 12.4635 20.2038C12.5555 20.2448 12.6548 20.2668 12.7555 20.2686C12.8562 20.2704 12.9562 20.2519 13.0496 20.2142C13.143 20.1764 13.2278 20.1203 13.299 20.0491C13.3703 19.9778 13.4264 19.893 13.4641 19.7996C13.5019 19.7062 13.5204 19.6062 13.5186 19.5055C13.5168 19.4048 13.4948 19.3055 13.4538 19.2135C13.4128 19.1215 13.3537 19.0387 13.28 18.97L6.31001 12L13.28 5.03003C13.4125 4.88785 13.4846 4.69981 13.4812 4.50551C13.4778 4.31121 13.399 4.12582 13.2616 3.98841C13.1242 3.85099 12.9388 3.77228 12.7445 3.76885C12.5502 3.76543 12.3622 3.83755 12.22 3.97003L4.72001 11.47Z" />
</svg>
