<svg width="24" height="24" viewBox="0 0 24 24"  xmlns="http://www.w3.org/2000/svg">
<path d="M11.9998 8.25006C12.414 8.25006 12.7498 8.58585 12.7498 9.00006V12.7501C12.7498 13.1643 12.414 13.5001 11.9998 13.5001C11.5856 13.5001 11.2498 13.1643 11.2498 12.7501V9.00006C11.2498 8.58585 11.5856 8.25006 11.9998 8.25006Z" />
<path d="M11.2498 15.7501C11.2498 15.3359 11.5856 15.0001 11.9998 15.0001H12.0073C12.4215 15.0001 12.7573 15.3359 12.7573 15.7501V15.7576C12.7573 16.1718 12.4215 16.5076 12.0073 16.5076H11.9998C11.5856 16.5076 11.2498 16.1718 11.2498 15.7576V15.7501Z" />
<path fill-rule="evenodd" clip-rule="evenodd" d="M9.40123 3.0034C10.5557 1.00229 13.4439 1.00229 14.5983 3.0034L21.9527 15.7509C23.1065 17.7509 21.6631 20.2501 19.3541 20.2501H4.64546C2.33649 20.2501 0.893061 17.7509 2.04691 15.7509L9.40123 3.0034ZM13.2991 3.75298C12.7218 2.75242 11.2778 2.75242 10.7005 3.75298L3.34619 16.5005C2.76926 17.5005 3.49098 18.7501 4.64546 18.7501H19.3541C20.5086 18.7501 21.2303 17.5005 20.6534 16.5005L13.2991 3.75298Z" />
</svg>
