<svg width="24" height="24" viewBox="0 0 24 24"  xmlns="http://www.w3.org/2000/svg"><path fill-rule="evenodd" clip-rule="evenodd" d="M12 2.25C6.615 2.25 2.25 6.615 2.25 12C2.25 17.385 6.615 21.75 12 21.75C17.385 21.75 21.75 17.385 21.75 12C21.75 6.615 17.385 2.25 12 2.25ZM9.375 8.25C8.835 8.25 8.547 8.669 8.439 8.884C8.3107 9.15445 8.24604 9.45069 8.25 9.75C8.25 10.048 8.309 10.355 8.439 10.616C8.547 10.831 8.834 11.25 9.375 11.25C9.915 11.25 10.203 10.831 10.311 10.616C10.441 10.356 10.5 10.048 10.5 9.75C10.5 9.452 10.441 9.145 10.311 8.884C10.203 8.669 9.916 8.25 9.375 8.25ZM13.689 8.884C13.797 8.669 14.084 8.25 14.625 8.25C15.165 8.25 15.453 8.669 15.561 8.884C15.691 9.144 15.75 9.452 15.75 9.75C15.75 10.048 15.691 10.355 15.561 10.616C15.453 10.831 15.166 11.25 14.625 11.25C14.085 11.25 13.797 10.831 13.689 10.616C13.5607 10.3456 13.496 10.0493 13.5 9.75C13.5 9.452 13.559 9.145 13.689 8.884ZM9.349 16.848C9.20761 16.9847 9.0182 17.0604 8.82155 17.0588C8.6249 17.0571 8.43675 16.9784 8.29763 16.8394C8.15851 16.7004 8.07954 16.5123 8.07774 16.3157C8.07594 16.119 8.15145 15.9295 8.288 15.788C8.77712 15.2977 9.35865 14.9093 9.99891 14.6453C10.6392 14.3813 11.3255 14.2469 12.018 14.25C13.4047 14.2531 14.7336 14.8063 15.713 15.788C15.7846 15.8572 15.8417 15.94 15.881 16.0315C15.9202 16.123 15.9409 16.2215 15.9417 16.3211C15.9425 16.4206 15.9235 16.5194 15.8857 16.6115C15.848 16.7037 15.7922 16.7874 15.7218 16.8578C15.6513 16.9282 15.5676 16.9838 15.4754 17.0215C15.3832 17.0592 15.2844 17.0781 15.1848 17.0772C15.0853 17.0763 14.9869 17.0555 14.8954 17.0162C14.8039 16.9768 14.7212 16.9197 14.652 16.848C13.9527 16.1467 13.0034 15.7517 12.013 15.75C11.5184 15.7476 11.0282 15.8434 10.5709 16.0318C10.1136 16.2203 9.69825 16.4977 9.349 16.848Z" fill="#0A0A0A"/></svg>