<svg width="24" height="24" viewBox="0 0 24 24"  xmlns="http://www.w3.org/2000/svg">
<path fill-rule="evenodd" clip-rule="evenodd" d="M11.9941 9.97413C12.1571 9.82791 12.3758 9.76023 12.5929 9.78885C14.7983 10.0796 16.5 11.9655 16.5 14.25C16.5 16.7353 14.4853 18.75 12 18.75C9.51472 18.75 7.5 16.7353 7.5 14.25C7.5 13.7601 7.57856 13.2871 7.72434 12.8437C7.79952 12.615 7.97989 12.4363 8.20925 12.3633C8.43862 12.2902 8.6891 12.3317 8.88267 12.4748C9.23078 12.7322 9.61154 12.9474 10.0175 13.113C10.3742 11.8857 11.0695 10.8036 11.9941 9.97413ZM12.7355 11.3407C11.9924 12.1049 11.4811 13.0931 11.3116 14.1929C11.2795 14.4007 11.1618 14.5855 10.987 14.7023C10.8122 14.8191 10.5964 14.8571 10.3922 14.8072C9.90528 14.6882 9.4392 14.5164 9.00038 14.2984C9.02622 15.933 10.3593 17.25 12 17.25C13.6569 17.25 15 15.9069 15 14.25C15 12.8472 14.0365 11.6684 12.7355 11.3407Z" />
<path fill-rule="evenodd" clip-rule="evenodd" d="M12.4565 1.9901C12.6586 2.01575 12.8416 2.12249 12.9633 2.28579C13.6547 3.21284 14.5706 3.99256 15.6798 4.53405C18.8143 5.93998 21 9.08875 21 12.7497C21 17.7202 16.9706 21.7497 12 21.7497C7.02944 21.7497 3 17.7202 3 12.7497C3 10.3368 3.95047 8.14442 5.49587 6.529C5.65017 6.36771 5.8683 6.28353 6.09095 6.29934C6.3136 6.31516 6.51764 6.42933 6.6476 6.61081C7.12 7.27052 7.69665 7.85041 8.35322 8.32637C8.7174 5.83776 10.0218 3.65463 11.8919 2.14981C12.0506 2.02211 12.2545 1.96446 12.4565 1.9901ZM12.2745 3.80996C10.7477 5.28196 9.78813 7.33523 9.75111 9.61283C9.7469 9.87173 9.60945 10.1101 9.3875 10.2435C9.16556 10.3769 8.89052 10.3863 8.65994 10.2685C7.65543 9.75521 6.7605 9.05903 6.0188 8.22391C5.06515 9.48202 4.5 11.0493 4.5 12.7497C4.5 16.8918 7.85786 20.2497 12 20.2497C16.1421 20.2497 19.5 16.8918 19.5 12.7497C19.5 9.69727 17.6765 7.06916 15.0562 5.89837C15.0488 5.89506 15.0415 5.89163 15.0342 5.88809C13.9575 5.3645 13.0303 4.65233 12.2745 3.80996Z" />
</svg>
