<svg width="24" height="24" viewBox="0 0 24 24"  xmlns="http://www.w3.org/2000/svg">
<path fill-rule="evenodd" clip-rule="evenodd" d="M12 2C17.5228 2 22 6.47715 22 12C22 17.5228 17.5228 22 12 22C6.47715 22 2 17.5228 2 12C2 6.47715 6.47715 2 12 2ZM15.3066 7.66406C15.25 7.48828 15.002 7.48828 14.9453 7.66406L13.8359 11.0742H10.1562L9.04688 7.66602C8.99023 7.49023 8.74219 7.49023 8.68555 7.66406L7.01758 12.7969C6.9668 12.9531 7.02344 13.125 7.15625 13.2227L11.9961 16.7383L16.8359 13.2227C16.9707 13.127 17.0254 12.9551 16.9746 12.7969L15.3066 7.66406Z"/>
</svg>
