<svg width="24" height="24" viewBox="0 0 24 24"  xmlns="http://www.w3.org/2000/svg">
<path d="M18.75 12.75C18.75 12.3522 18.5919 11.9708 18.3105 11.6895C18.0292 11.4081 17.6478 11.25 17.25 11.25H6.75C6.35218 11.25 5.97076 11.4081 5.68945 11.6895C5.40815 11.9708 5.25 12.3522 5.25 12.75V19.5C5.25 19.8978 5.40815 20.2792 5.68945 20.5605C5.97076 20.8419 6.35218 21 6.75 21H17.25C17.6478 21 18.0292 20.8419 18.3105 20.5605C18.5919 20.2792 18.75 19.8978 18.75 19.5V12.75ZM15.75 6.75C15.75 5.75544 15.3546 4.80189 14.6514 4.09863C13.992 3.43923 13.1125 3.05077 12.1855 3.00488L12 3C11.0054 3 10.0519 3.39537 9.34863 4.09863C8.64537 4.80189 8.25 5.75544 8.25 6.75V9.75H15.75V6.75ZM17.25 9.75C18.0456 9.75 18.8085 10.0663 19.3711 10.6289C19.9337 11.1915 20.25 11.9544 20.25 12.75V19.5C20.25 20.2957 19.9337 21.0585 19.3711 21.6211C18.8085 22.1837 18.0456 22.5 17.25 22.5H6.75C5.95435 22.5 5.19152 22.1837 4.62891 21.6211C4.0663 21.0585 3.75 20.2957 3.75 19.5V12.75C3.75 11.9544 4.0663 11.1915 4.62891 10.6289C5.1211 10.1367 5.76649 9.83291 6.45312 9.76465L6.75 9.75V6.75C6.75 5.35761 7.30352 4.02265 8.28809 3.03809C9.27265 2.05352 10.6076 1.5 12 1.5L12.2607 1.50684C13.5582 1.57131 14.789 2.11516 15.7119 3.03809C16.6965 4.02265 17.25 5.35761 17.25 6.75V9.75Z" />
</svg>
