<svg width="24" height="24" viewBox="0 0 24 24"  xmlns="http://www.w3.org/2000/svg">
<path d="M20.2407 20.2495C20.2407 19.8353 19.9049 19.4995 19.4907 19.4995H8.98968L8.98968 5.56049L11.4597 8.03024C11.7527 8.32311 12.2275 8.32308 12.5204 8.03017C12.8133 7.73726 12.8132 7.26238 12.5203 6.96951L8.76998 3.21964C8.47709 2.92679 8.00227 2.92679 7.70938 3.21963L3.95902 6.96951C3.66611 7.26238 3.66608 7.73726 3.95895 8.03017C4.25183 8.32308 4.7267 8.32311 5.01961 8.03024L7.48968 5.56049L7.48968 20.2495C7.48968 20.6637 7.82547 20.9995 8.23968 20.9995H19.4907C19.9049 20.9995 20.2407 20.6637 20.2407 20.2495Z" />
</svg>
