<svg width="24" height="24" viewBox="0 0 24 24"  xmlns="http://www.w3.org/2000/svg">
<path d="M3.74024 20.2504C4.15445 20.2504 4.49024 19.9146 4.49024 19.5004L4.49023 8.99939L18.4292 8.99938L15.9595 11.4695C15.6666 11.7624 15.6667 12.2372 15.9596 12.5301C16.2525 12.823 16.7274 12.823 17.0202 12.53L20.7701 8.77968C21.0629 8.48679 21.0629 8.01197 20.7701 7.71909L17.0202 3.96873C16.7274 3.67582 16.2525 3.67578 15.9596 3.96866C15.6667 4.26153 15.6666 4.73641 15.9595 5.02932L18.4292 7.49938L3.74023 7.49939C3.32602 7.49939 2.99023 7.83517 2.99023 8.24939L2.99024 19.5004C2.99024 19.9146 3.32602 20.2504 3.74024 20.2504Z" />
</svg>
