<svg width="24" height="24" viewBox="0 0 24 24"  xmlns="http://www.w3.org/2000/svg">
<path d="M3.73932 20.2494C3.73932 19.8352 4.07511 19.4994 4.48932 19.4994H14.9903L14.9903 5.56037L12.5202 8.03012C12.2273 8.32299 11.7524 8.32296 11.4596 8.03005C11.1667 7.73713 11.1667 7.26226 11.4596 6.96939L15.21 3.21951C15.5029 2.92667 15.9777 2.92667 16.2706 3.21951L20.021 6.96939C20.3139 7.26226 20.3139 7.73713 20.021 8.03005C19.7281 8.32296 19.2533 8.32299 18.9604 8.03012L16.4903 5.56037L16.4903 20.2494C16.4903 20.6636 16.1545 20.9994 15.7403 20.9994H4.48932C4.07511 20.9994 3.73932 20.6636 3.73932 20.2494Z" />
</svg>
