<svg width="24" height="24" viewBox="0 0 24 24"  xmlns="http://www.w3.org/2000/svg">
<path d="M20.2407 3.74988C20.2407 4.16409 19.9049 4.49988 19.4907 4.49988L8.98968 4.49988L8.98968 18.4389L11.4597 15.9691C11.7527 15.6763 12.2275 15.6763 12.5204 15.9692C12.8133 16.2621 12.8132 16.737 12.5203 17.0299L8.76998 20.7797C8.47709 21.0726 8.00227 21.0726 7.70938 20.7797L3.95902 17.0299C3.66611 16.737 3.66608 16.2621 3.95895 15.9692C4.25183 15.6763 4.7267 15.6763 5.01961 15.9691L7.48968 18.4389L7.48968 3.74988C7.48968 3.33566 7.82547 2.99988 8.23968 2.99988L19.4907 2.99988C19.9049 2.99988 20.2407 3.33566 20.2407 3.74988Z" />
</svg>
