<svg width="24" height="24" viewBox="0 0 24 24"  xmlns="http://www.w3.org/2000/svg"><path d="M20.25 12C20.25 9.81196 19.3812 7.71319 17.834 6.16602C16.2868 4.61884 14.188 3.75 12 3.75C9.81196 3.75 7.71319 4.61884 6.16602 6.16602C4.61884 7.71319 3.75 9.81196 3.75 12C3.75 13.0834 3.96333 14.1563 4.37793 15.1572C4.79253 16.1581 5.39995 17.0679 6.16602 17.834C6.93209 18.6001 7.84186 19.2075 8.84277 19.6221C9.84371 20.0367 10.9166 20.25 12 20.25C13.0834 20.25 14.1563 20.0367 15.1572 19.6221C16.1581 19.2075 17.0679 18.6001 17.834 17.834C18.6001 17.0679 19.2075 16.1581 19.6221 15.1572C20.0367 14.1563 20.25 13.0834 20.25 12ZM12.0186 14.25C13.4051 14.2534 14.7337 14.8065 15.7129 15.7881C16.0053 16.0812 16.0049 16.5561 15.7119 16.8486C15.4187 17.1411 14.9439 17.1407 14.6514 16.8477C13.9526 16.1471 13.0041 15.7523 12.0146 15.75H12.0127C11.5182 15.7476 11.0275 15.8438 10.5703 16.0322C10.1133 16.2206 9.69773 16.4977 9.34863 16.8477C9.0561 17.1407 8.58129 17.1411 8.28809 16.8486C7.99514 16.5561 7.99471 16.0812 8.28711 15.7881C8.77647 15.2975 9.35837 14.9086 9.99902 14.6445C10.6388 14.3809 11.3246 14.247 12.0166 14.25H12.0186ZM9.375 8.25C9.91586 8.25 10.203 8.66964 10.3105 8.88477C10.4406 9.14497 10.5 9.45176 10.5 9.75C10.5 10.0482 10.4406 10.355 10.3105 10.6152C10.203 10.8304 9.91586 11.25 9.375 11.25C8.83414 11.25 8.54702 10.8304 8.43945 10.6152C8.30939 10.355 8.25 10.0482 8.25 9.75C8.25 9.45176 8.30939 9.14497 8.43945 8.88477C8.54702 8.66964 8.83414 8.25 9.375 8.25ZM14.625 8.25C15.1659 8.25 15.453 8.66964 15.5605 8.88477C15.6906 9.14497 15.75 9.45176 15.75 9.75C15.75 10.0482 15.6906 10.355 15.5605 10.6152C15.453 10.8304 15.1659 11.25 14.625 11.25C14.0841 11.25 13.797 10.8304 13.6895 10.6152C13.5594 10.355 13.5 10.0482 13.5 9.75C13.5 9.45176 13.5594 9.14497 13.6895 8.88477C13.797 8.66964 14.0841 8.25 14.625 8.25ZM21.75 12C21.75 13.2804 21.4978 14.5485 21.0078 15.7314C20.5178 16.9143 19.7998 17.9892 18.8945 18.8945C17.9892 19.7998 16.9143 20.5178 15.7314 21.0078C14.5485 21.4978 13.2804 21.75 12 21.75C10.7196 21.75 9.45148 21.4978 8.26855 21.0078C7.08573 20.5178 6.01078 19.7998 5.10547 18.8945C4.20016 17.9892 3.48217 16.9143 2.99219 15.7314C2.5022 14.5485 2.25 13.2804 2.25 12C2.25 9.41414 3.27699 6.93395 5.10547 5.10547C6.93395 3.27699 9.41414 2.25 12 2.25C14.5859 2.25 17.0661 3.27699 18.8945 5.10547C20.723 6.93395 21.75 9.41414 21.75 12Z" fill="#0A0A0A"/></svg>