<svg width="24" height="24" viewBox="0 0 24 24"  xmlns="http://www.w3.org/2000/svg">
<path fill-rule="evenodd" clip-rule="evenodd" d="M18.5366 2.29566C18.9256 2.15328 19.3563 2.35318 19.4987 2.74215C19.6387 3.12466 19.7696 3.51159 19.891 3.90268C20.4147 5.58942 20.7627 7.35313 20.914 9.17222C21.431 9.71067 21.75 10.4433 21.75 11.25C21.75 12.0566 21.431 12.7893 20.914 13.3277C20.7627 15.1468 20.4147 16.9105 19.891 18.5972C19.7696 18.9883 19.6387 19.3753 19.4987 19.7578C19.3563 20.1467 18.9256 20.3466 18.5366 20.2043C18.1476 20.0619 17.9477 19.6311 18.0901 19.2422C18.1487 19.082 18.2056 18.9211 18.2608 18.7593C16.1274 17.74 13.8142 17.0364 11.3814 16.7089C11.5642 17.2573 11.7738 17.7935 12.0087 18.3158C12.4023 19.1913 12.1167 20.2758 11.2366 20.784L10.5803 21.1629C9.67181 21.6874 8.46171 21.3711 7.99764 20.3674C7.41805 19.1137 6.95424 17.7955 6.61997 16.4265C4.13945 16.0079 2.25 13.8496 2.25 11.25C2.25 8.35046 4.60051 5.99996 7.5 5.99996H8.25C8.93276 5.99996 9.60847 5.97055 10.276 5.91296C13.1145 5.66804 15.8066 4.91322 18.2608 3.74057C18.2056 3.57883 18.1487 3.41789 18.0901 3.25777C17.9477 2.86879 18.1476 2.43804 18.5366 2.29566ZM18.7027 5.19069C16.3002 6.31161 13.6879 7.05815 10.9413 7.35526C10.6527 8.60622 10.5 9.90982 10.5 11.25C10.5 12.5901 10.6527 13.8937 10.9413 15.1447C13.6879 15.4418 16.3002 16.1883 18.7027 17.3092C19.0828 15.8973 19.3333 14.4321 19.4405 12.9268C19.4799 12.3731 19.5 11.8139 19.5 11.25C19.5 10.686 19.4799 10.1268 19.4405 9.57316C19.3333 8.06786 19.0828 6.60258 18.7027 5.19069ZM9.38039 15.0253C9.13091 13.8053 9 12.5426 9 11.25C9 9.95736 9.13091 8.69465 9.38039 7.47459C9.00566 7.49144 8.6288 7.49996 8.25 7.49996H7.5C5.42893 7.49996 3.75 9.17889 3.75 11.25C3.75 13.321 5.42893 15 7.5 15H8.25C8.6288 15 9.00565 15.0085 9.38039 15.0253ZM8.187 16.5C8.48694 17.6205 8.88063 18.7028 9.35917 19.7379C9.42948 19.89 9.63599 19.976 9.83029 19.8639L10.4866 19.4849C10.6517 19.3896 10.7419 19.1563 10.6406 18.9309C10.2952 18.1628 10 17.3671 9.75922 16.5481C9.26036 16.5162 8.75712 16.5 8.25 16.5H8.187Z" />
</svg>
