<svg width="24" height="24" viewBox="0 0 24 24"  xmlns="http://www.w3.org/2000/svg">
<path fill-rule="evenodd" clip-rule="evenodd" d="M11.6998 2.80529C11.8912 2.72164 12.1089 2.72164 12.3003 2.80529C16.0191 4.43011 19.5437 6.41637 22.8295 8.71956C23.0673 8.88623 23.1875 9.1752 23.1381 9.46135C23.0887 9.7475 22.8785 9.97941 22.5986 10.0567C21.9137 10.2457 21.2346 10.4489 20.5617 10.6659C20.7917 12.5767 20.9329 14.5147 20.9812 16.4755C20.9889 16.7847 20.8059 17.0669 20.5204 17.1861C17.6693 18.3764 14.9573 19.834 12.4159 21.5277C12.164 21.6955 11.836 21.6955 11.5841 21.5277C10.052 20.5067 8.45805 19.5715 6.80894 18.7289C6.49039 19.3768 6.06172 19.9842 5.52297 20.523C5.23008 20.8159 4.75521 20.8159 4.46231 20.523C4.16942 20.2301 4.16942 19.7552 4.46231 19.4623C4.88144 19.0432 5.21487 18.5711 5.46261 18.0675C4.80953 17.7592 4.14838 17.4653 3.47957 17.1861C3.19414 17.0669 3.01114 16.7847 3.01876 16.4755C3.06706 14.5147 3.2083 12.5767 3.43827 10.6659C2.76544 10.4489 2.08642 10.2457 1.40152 10.0567C1.1216 9.9794 0.911438 9.74749 0.862017 9.46134C0.812596 9.17519 0.932801 8.88622 1.17059 8.71955C4.45643 6.41636 7.98095 4.43011 11.6998 2.80529ZM4.89059 11.159C4.70711 12.7552 4.58704 14.3709 4.533 16.0033C5.00129 16.2046 5.46585 16.413 5.92655 16.6282C5.97552 16.3378 6 16.0439 6 15.75V15.5493C5.55165 15.29 5.25 14.8052 5.25 14.25C5.25 13.6948 5.55165 13.21 6 12.9507V11.5698C5.63226 11.4287 5.26243 11.2917 4.89059 11.159ZM8.67519 11.0454C9.86425 10.3593 11.0815 9.71651 12.3247 9.11935C12.6981 8.94001 12.8554 8.49194 12.6761 8.11857C12.4967 7.74519 12.0486 7.5879 11.6753 7.76724C10.053 8.54646 8.47391 9.40118 6.94256 10.3268C6.13747 10.01 5.32252 9.71278 4.49828 9.43573C4.11244 9.30604 3.72456 9.18077 3.33471 9.05998C6.07247 7.24744 8.96943 5.6563 12 4.31201C15.0307 5.6563 17.9276 7.24745 20.6654 9.05999C20.2755 9.18079 19.8876 9.30607 19.5017 9.43577C16.9028 10.3094 14.3961 11.3836 12.0001 12.64C10.9139 12.0705 9.80508 11.5384 8.67519 11.0454ZM7.5 12.1735V12.9507C7.94835 13.21 8.25 13.6948 8.25 14.25C8.25 14.8052 7.94835 15.29 7.5 15.5493V15.75C7.5 16.2721 7.43971 16.7944 7.31913 17.3056C8.93221 18.1218 10.4945 19.0237 12 20.0053C14.3574 18.4683 16.8541 17.1266 19.467 16.0033C19.413 14.3709 19.2929 12.7553 19.1094 11.1591C16.7728 11.9928 14.516 12.9947 12.3535 14.1501C12.1326 14.2681 11.8675 14.2681 11.6466 14.1501C10.2998 13.4305 8.91644 12.7705 7.5 12.1735Z" />
</svg>
