<svg width="24" height="24" viewBox="0 0 24 24"  xmlns="http://www.w3.org/2000/svg">
<path d="M20.2397 20.2504C19.8255 20.2504 19.4897 19.9146 19.4897 19.5004L19.4897 8.99939L5.55073 8.99938L8.02047 11.4695C8.31335 11.7624 8.31332 12.2372 8.0204 12.5301C7.72749 12.823 7.25262 12.823 6.95974 12.53L3.20987 8.77968C2.91702 8.48679 2.91702 8.01197 3.20987 7.71909L6.95974 3.96873C7.25262 3.67582 7.72749 3.67578 8.0204 3.96866C8.31332 4.26153 8.31335 4.73641 8.02047 5.02932L5.55073 7.49938L20.2397 7.49939C20.6539 7.49939 20.9897 7.83517 20.9897 8.24939L20.9897 19.5004C20.9897 19.9146 20.6539 20.2504 20.2397 20.2504Z" />
</svg>
