<svg width="24" height="24" viewBox="0 0 24 24"  xmlns="http://www.w3.org/2000/svg">
<path d="M3.73932 20.2517C3.73932 19.8375 4.07511 19.5017 4.48932 19.5017H14.9903L14.9903 5.56269L12.5202 8.03244C12.2273 8.32531 11.7524 8.32528 11.4596 8.03237C11.1667 7.73945 11.1667 7.26458 11.4596 6.97171L15.21 3.22183C15.5029 2.92899 15.9777 2.92899 16.2706 3.22183L20.021 6.97171C20.3139 7.26458 20.3139 7.73945 20.021 8.03237C19.7281 8.32528 19.2533 8.32531 18.9604 8.03244L16.4903 5.56269L16.4903 20.2517C16.4903 20.6659 16.1545 21.0017 15.7403 21.0017H4.48932C4.07511 21.0017 3.73932 20.6659 3.73932 20.2517Z" />
</svg>
