<svg width="24" height="24" viewBox="0 0 24 24"  xmlns="http://www.w3.org/2000/svg">
<path d="M3.74024 20.2527C4.15445 20.2527 4.49024 19.9169 4.49024 19.5027L4.49023 9.00171L18.4292 9.0017L15.9595 11.4718C15.6666 11.7647 15.6667 12.2396 15.9596 12.5324C16.2525 12.8253 16.7274 12.8253 17.0202 12.5324L20.7701 8.782C21.0629 8.48911 21.0629 8.01429 20.7701 7.72141L17.0202 3.97105C16.7274 3.67813 16.2525 3.6781 15.9596 3.97098C15.6667 4.26385 15.6666 4.73873 15.9595 5.03164L18.4292 7.5017L3.74023 7.50171C3.32602 7.50171 2.99023 7.83749 2.99023 8.25171L2.99024 19.5027C2.99024 19.9169 3.32602 20.2527 3.74024 20.2527Z" />
</svg>
