<svg width="24" height="24" viewBox="0 0 24 24"  xmlns="http://www.w3.org/2000/svg">
<path d="M20.2397 20.2527C19.8255 20.2527 19.4897 19.9169 19.4897 19.5027L19.4897 9.00171L5.55073 9.0017L8.02047 11.4718C8.31335 11.7647 8.31332 12.2396 8.0204 12.5324C7.72749 12.8253 7.25262 12.8253 6.95974 12.5324L3.20987 8.782C2.91702 8.48911 2.91702 8.01429 3.20987 7.72141L6.95974 3.97105C7.25262 3.67813 7.72749 3.6781 8.0204 3.97098C8.31332 4.26385 8.31335 4.73873 8.02047 5.03164L5.55073 7.5017L20.2397 7.50171C20.6539 7.50171 20.9897 7.83749 20.9897 8.25171L20.9897 19.5027C20.9897 19.9169 20.6539 20.2527 20.2397 20.2527Z" />
</svg>
