<svg width="24" height="24" viewBox="0 0 24 24"  xmlns="http://www.w3.org/2000/svg">
<path d="M4.71972 3.96972C4.99433 3.69512 5.42905 3.67765 5.72363 3.91796L5.78027 3.96972L13.2803 11.4697L13.332 11.5264C13.5723 11.8209 13.5549 12.2557 13.2803 12.5303L5.78027 20.0303C5.48738 20.3232 5.01261 20.3232 4.71972 20.0303C4.42683 19.7374 4.42683 19.2626 4.71972 18.9697L11.6894 12L4.71972 5.03027L4.66796 4.97363C4.42765 4.67905 4.44512 4.24433 4.71972 3.96972ZM10.7197 3.96972C10.9943 3.69512 11.429 3.67765 11.7236 3.91796L11.7803 3.96972L19.2803 11.4697L19.332 11.5264C19.5723 11.8209 19.5549 12.2557 19.2803 12.5303L11.7803 20.0303C11.4874 20.3232 11.0126 20.3232 10.7197 20.0303C10.4268 19.7374 10.4268 19.2626 10.7197 18.9697L17.6894 12L10.7197 5.03027L10.668 4.97363C10.4277 4.67905 10.4451 4.24433 10.7197 3.96972Z" />
</svg>
