<svg width="24" height="24" viewBox="0 0 24 24"  xmlns="http://www.w3.org/2000/svg">
<path fill-rule="evenodd" clip-rule="evenodd" d="M11.6221 1.60217C11.8556 1.46594 12.1444 1.46594 12.3779 1.60217L21.3779 6.85217C21.6083 6.98657 21.75 7.23325 21.75 7.5V16.5C21.75 16.7668 21.6083 17.0134 21.3779 17.1478L12.3779 22.3978C12.1444 22.5341 11.8556 22.5341 11.6221 22.3978L2.6221 17.1478C2.39168 17.0134 2.25 16.7668 2.25 16.5V7.5C2.25 7.23325 2.39168 6.98657 2.6221 6.85217L11.6221 1.60217ZM3.75 8.80578L11.25 13.1808V20.4442L3.75 16.0692V8.80578ZM12.75 20.4442L20.25 16.0692V8.80578L12.75 13.1808V20.4442ZM12 11.8817L19.5115 7.5L12 3.11828L4.48848 7.5L12 11.8817Z" />
</svg>
