<svg width="24" height="24" viewBox="0 0 24 24"  xmlns="http://www.w3.org/2000/svg">
<path fill-rule="evenodd" clip-rule="evenodd" d="M12 5.25C12.4142 5.25 12.75 5.58579 12.75 6V6.8157C13.3768 6.92679 13.9745 7.17882 14.4691 7.57178L14.884 7.90137C15.2084 8.15902 15.2624 8.63081 15.0048 8.95514C14.7471 9.27947 14.2753 9.33353 13.951 9.07588L13.5361 8.74629C13.309 8.56586 13.0392 8.43462 12.75 8.35259V11.3096C13.4021 11.4144 14.0381 11.6591 14.5714 12.059C15.3164 12.6178 15.75 13.4035 15.75 14.25C15.75 15.0965 15.3164 15.8822 14.5714 16.441C14.0381 16.8409 13.4021 17.0856 12.75 17.1904V18C12.75 18.4142 12.4142 18.75 12 18.75C11.5858 18.75 11.25 18.4142 11.25 18V17.1904C10.5979 17.0856 9.96206 16.8409 9.42886 16.441L8.54999 15.7818C8.21862 15.5333 8.15147 15.0632 8.40001 14.7318C8.64854 14.4004 9.11865 14.3333 9.45001 14.5818L10.3289 15.241C10.5864 15.4341 10.9028 15.5771 11.25 15.6616V12.6844C10.6327 12.575 10.033 12.3274 9.53058 11.9283C8.81822 11.3624 8.41752 10.5787 8.41752 9.75003C8.41752 8.92133 8.81822 8.13768 9.53058 7.57178C10.0253 7.17876 10.6231 6.92672 11.25 6.81565V6C11.25 5.58579 11.5858 5.25 12 5.25ZM11.25 8.35252C10.9607 8.43454 10.6908 8.5658 10.4636 8.74629C10.0699 9.05907 9.91752 9.42707 9.91752 9.75003C9.91752 10.073 10.0699 10.441 10.4636 10.7538C10.686 10.9305 10.9552 11.0638 11.25 11.1475V8.35252ZM12.75 12.8384V15.6616C13.0972 15.5772 13.4138 15.4342 13.6713 15.241C14.0978 14.9211 14.25 14.5551 14.25 14.25C14.25 13.9449 14.0978 13.5789 13.6713 13.259C13.4138 13.0658 13.0972 12.9228 12.75 12.8384Z" />
<path fill-rule="evenodd" clip-rule="evenodd" d="M2.25 12C2.25 6.61522 6.61522 2.25 12 2.25C17.3848 2.25 21.75 6.61522 21.75 12C21.75 17.3848 17.3848 21.75 12 21.75C6.61522 21.75 2.25 17.3848 2.25 12ZM12 3.75C7.44365 3.75 3.75 7.44365 3.75 12C3.75 16.5563 7.44365 20.25 12 20.25C16.5563 20.25 20.25 16.5563 20.25 12C20.25 7.44365 16.5563 3.75 12 3.75Z" />
</svg>
