<svg width="24" height="24" viewBox="0 0 24 24"  xmlns="http://www.w3.org/2000/svg">
<path d="M18 9.625C18 8.42112 17.7398 7.2802 17.2764 6.25H16.4805C15.9163 6.25034 15.3557 6.15952 14.8203 5.98145L11.7051 4.94141C11.4188 4.84632 11.1222 4.78575 10.8223 4.76172L10.5205 4.75H6.50391C6.13212 4.75002 5.80207 4.87938 5.57422 5.09961L5.4834 5.19922C3.92991 7.12772 3 9.57924 3 12.25L3.00391 12.5518C3.01185 12.8535 3.03158 13.1549 3.06348 13.4551L3.08105 13.5615C3.19272 14.0856 3.70323 14.5 4.37207 14.5H9.7002C10.1143 14.5001 10.4502 14.8359 10.4502 15.25C10.4502 15.6641 10.1143 15.9999 9.7002 16H9.05176C9.07579 16.2816 9.03295 16.5762 8.90039 16.8545C8.47079 17.7588 8.24843 18.7478 8.25 19.749L8.25781 19.8984C8.29195 20.2417 8.44337 20.5645 8.68945 20.8105C8.97076 21.0919 9.35218 21.25 9.75 21.25V20.6172C9.75 19.9481 9.87818 19.2864 10.125 18.667L10.126 18.666L10.2031 18.4873C10.6127 17.6088 11.3481 16.9806 12.1221 16.5684L12.498 16.3555C13.3606 15.8357 14.1225 15.1618 14.7451 14.3672L14.8623 14.2246C15.4469 13.5475 16.2932 13.0324 17.2783 13.0029C17.7416 11.9733 18 10.8304 18 9.625ZM19.5 9.625C19.5 11.2343 19.11 12.7553 18.417 14.0947L18.416 14.0938C18.3451 14.231 18.2707 14.3663 18.1934 14.5H19.001C19.5748 14.5 20.0449 14.1914 20.2207 13.748L20.3984 13.2646C20.7879 12.1237 21 10.9002 21 9.625C21 8.62301 20.8695 7.65296 20.624 6.72949L20.5117 6.33691C20.3644 5.85349 19.8723 5.5 19.2568 5.5H18.585C19.1724 6.75463 19.5 8.15278 19.5 9.625ZM22.5 9.625C22.5 11.2737 22.187 12.85 21.6172 14.2979L21.6162 14.2988C21.1797 15.4028 20.0906 16 19.001 16H17.9482C17.1421 16 16.655 15.3656 16.6162 14.7002C16.3637 14.8359 16.1262 15.0358 15.9248 15.292L15.9258 15.293C15.0855 16.3654 14.0301 17.2502 12.8281 17.8916C12.208 18.2219 11.7373 18.6767 11.5186 19.2236C11.3416 19.668 11.25 20.1406 11.25 20.6172V21.25C11.25 21.6478 11.0919 22.0292 10.8105 22.3105C10.5645 22.5566 10.2417 22.708 9.89844 22.7422L9.75 22.75C8.95435 22.75 8.19151 22.4337 7.62891 21.8711C7.13671 21.3789 6.83291 20.7335 6.76465 20.0469L6.75 19.75C6.74826 18.5255 7.02039 17.316 7.5459 16.21L7.55664 16.1748C7.56386 16.1363 7.55914 16.0877 7.53418 16.042C7.51954 16.0152 7.50463 16.004 7.5 16.001C7.49858 16 7.50081 16 7.49805 16H4.37207C3.11729 16 1.89281 15.1945 1.61523 13.8838L1.57227 13.6143C1.53614 13.2744 1.51389 12.9333 1.50488 12.5918L1.5 12.25C1.5 9.22494 2.55414 6.44422 4.31445 4.25879L4.4209 4.13477C4.96825 3.53566 5.7434 3.25002 6.50391 3.25H10.5195L10.7305 3.25391C11.2232 3.27342 11.7111 3.36269 12.1797 3.51855L15.2949 4.55859C15.6772 4.68572 16.0766 4.75024 16.4795 4.75H17.1602C17.3666 4.32643 17.7808 4.00014 18.3486 4H19.2568C20.4194 4 21.5756 4.68285 21.9463 5.89941L22.0732 6.34473C22.3517 7.39256 22.5 8.49181 22.5 9.625Z" />
</svg>
