<svg width="24" height="24" viewBox="0 0 24 24"  xmlns="http://www.w3.org/2000/svg">
<path fill-rule="evenodd" clip-rule="evenodd" d="M2.73429 2.5984C2.92768 2.40193 3.21327 2.3274 3.47801 2.4043C10.1766 4.35021 16.3973 7.41817 21.9232 11.3908C22.1192 11.5317 22.2354 11.7583 22.2354 11.9998C22.2354 12.2412 22.1192 12.4678 21.9232 12.6087C16.3974 16.5814 10.1767 19.6494 3.47811 21.5954C3.21337 21.6723 2.92778 21.5978 2.73438 21.4013C2.54099 21.2049 2.47097 20.9181 2.55204 20.6546L5.21501 12L2.55195 3.3451C2.47088 3.0816 2.54089 2.79487 2.73429 2.5984ZM6.55364 12.75L4.40038 19.7481C10.0795 17.9504 15.3886 15.32 20.1845 11.9998C15.3886 8.67962 10.0794 6.04922 4.40028 4.25162L6.55364 11.25L13.5 11.25C13.9142 11.25 14.25 11.5858 14.25 12C14.25 12.4142 13.9142 12.75 13.5 12.75L6.55364 12.75Z" />
</svg>
