<svg width="24" height="24" viewBox="0 0 24 24"  xmlns="http://www.w3.org/2000/svg">
<path d="M15.4359 9.13955C15.773 9.38031 15.8511 9.84872 15.6103 10.1858L11.8603 15.4358C11.7322 15.6152 11.5316 15.7291 11.3119 15.7473C11.0921 15.7655 10.8756 15.6861 10.7197 15.5302L8.46967 13.2802C8.17678 12.9873 8.17678 12.5124 8.46967 12.2195C8.76256 11.9266 9.23744 11.9266 9.53033 12.2195L11.1543 13.8435L14.3897 9.31392C14.6305 8.97686 15.0989 8.89879 15.4359 9.13955Z" />
<path fill-rule="evenodd" clip-rule="evenodd" d="M11.4843 2.16956C11.7735 1.89563 12.2265 1.89563 12.5157 2.16956C14.5325 4.07953 17.2538 5.24986 20.25 5.24986C20.2977 5.24986 20.3453 5.24957 20.3928 5.24898C20.7202 5.24491 21.0123 5.45366 21.1146 5.76467C21.5271 7.01943 21.75 8.35939 21.75 9.74991C21.75 15.6919 17.6859 20.6828 12.1869 22.0982C12.0643 22.1297 11.9357 22.1297 11.8131 22.0982C6.31406 20.6828 2.25 15.6919 2.25 9.74991C2.25 8.35939 2.47287 7.01943 2.88541 5.76467C2.98767 5.45366 3.27984 5.24491 3.60721 5.24898C3.65473 5.24957 3.70233 5.24986 3.75 5.24986C6.74624 5.24986 9.46752 4.07953 11.4843 2.16956ZM4.15599 6.74352C3.8915 7.69976 3.75 8.70777 3.75 9.74991C3.75 14.9234 7.2428 19.2829 12 20.5957C16.7572 19.2829 20.25 14.9234 20.25 9.74991C20.25 8.70777 20.1085 7.69976 19.844 6.74352C16.8566 6.65 14.1272 5.52817 12 3.72128C9.87276 5.52817 7.14341 6.65 4.15599 6.74352Z" />
</svg>
