<svg width="24" height="24" viewBox="0 0 24 24"  xmlns="http://www.w3.org/2000/svg">
<path d="M20.2397 3.75134C19.8255 3.75134 19.4897 4.08713 19.4897 4.50134V15.0023H5.55073L8.02047 12.5323C8.31335 12.2393 8.31332 11.7645 8.0204 11.4716C7.72749 11.1787 7.25262 11.1787 6.95974 11.4717L3.20987 15.222C2.91702 15.5149 2.91702 15.9897 3.20987 16.2826L6.95974 20.033C7.25262 20.3259 7.72749 20.3259 8.0204 20.033C8.31332 19.7402 8.31335 19.2653 8.02047 18.9724L5.55073 16.5023H20.2397C20.6539 16.5023 20.9897 16.1665 20.9897 15.7523V4.50134C20.9897 4.08713 20.6539 3.75134 20.2397 3.75134Z" />
</svg>
