<svg width="24" height="24" viewBox="0 0 24 24"  xmlns="http://www.w3.org/2000/svg">
<path d="M3.73932 3.75C3.73932 4.16421 4.07511 4.5 4.48932 4.5L14.9903 4.5L14.9903 18.439L12.5202 15.9693C12.2273 15.6764 11.7524 15.6764 11.4596 15.9693C11.1667 16.2622 11.1667 16.7371 11.4596 17.03L15.21 20.7799C15.5029 21.0727 15.9777 21.0727 16.2706 20.7799L20.021 17.03C20.3139 16.7371 20.3139 16.2622 20.021 15.9693C19.7281 15.6764 19.2533 15.6764 18.9604 15.9693L16.4903 18.439L16.4903 3.75C16.4903 3.33579 16.1545 3 15.7403 3L4.48932 3C4.07511 3 3.73932 3.33579 3.73932 3.75Z" />
</svg>
