<svg width="24" height="24" viewBox="0 0 24 24"  xmlns="http://www.w3.org/2000/svg">
<path d="M20.2407 20.2518C20.2407 19.8376 19.9049 19.5018 19.4907 19.5018H8.98968L8.98968 5.56281L11.4597 8.03256C11.7527 8.32543 12.2275 8.3254 12.5204 8.03249C12.8133 7.73958 12.8132 7.2647 12.5203 6.97183L8.76998 3.22195C8.47709 2.92911 8.00227 2.92911 7.70938 3.22195L3.95902 6.97183C3.66611 7.2647 3.66608 7.73958 3.95895 8.03249C4.25183 8.3254 4.7267 8.32543 5.01961 8.03256L7.48968 5.56281L7.48968 20.2518C7.48968 20.666 7.82547 21.0018 8.23968 21.0018H19.4907C19.9049 21.0018 20.2407 20.666 20.2407 20.2518Z" />
</svg>
