<svg width="24" height="24" viewBox="0 0 24 24"  xmlns="http://www.w3.org/2000/svg">
<path d="M20.2397 3.74902C19.8255 3.74902 19.4897 4.08481 19.4897 4.49902V15H5.55073L8.02047 12.5299C8.31335 12.237 8.31332 11.7621 8.0204 11.4693C7.72749 11.1764 7.25262 11.1764 6.95974 11.4693L3.20987 15.2197C2.91702 15.5126 2.91702 15.9874 3.20987 16.2803L6.95974 20.0307C7.25262 20.3236 7.72749 20.3236 8.0204 20.0307C8.31332 19.7378 8.31335 19.263 8.02047 18.9701L5.55073 16.5H20.2397C20.6539 16.5 20.9897 16.1642 20.9897 15.75V4.49902C20.9897 4.08481 20.6539 3.74902 20.2397 3.74902Z" />
</svg>
