<svg width="24" height="24" viewBox="0 0 24 24"  xmlns="http://www.w3.org/2000/svg">
<path d="M8.46967 10.7197L11.4697 7.71967C11.7626 7.42678 12.2374 7.42678 12.5303 7.71967L15.5303 10.7197C15.8232 11.0126 15.8232 11.4874 15.5303 11.7803C15.2374 12.0732 14.7626 12.0732 14.4697 11.7803L12.75 10.0607L12.75 15.75C12.75 16.1642 12.4142 16.5 12 16.5C11.5858 16.5 11.25 16.1642 11.25 15.75L11.25 10.0607L9.53033 11.7803C9.23744 12.0732 8.76256 12.0732 8.46967 11.7803C8.17678 11.4874 8.17678 11.0126 8.46967 10.7197Z" />
<path fill-rule="evenodd" clip-rule="evenodd" d="M2.25 12C2.25 6.61522 6.61522 2.25 12 2.25C17.3848 2.25 21.75 6.61522 21.75 12C21.75 17.3848 17.3848 21.75 12 21.75C6.61522 21.75 2.25 17.3848 2.25 12ZM12 3.75C7.44365 3.75 3.75 7.44365 3.75 12C3.75 16.5563 7.44365 20.25 12 20.25C16.5563 20.25 20.25 16.5563 20.25 12C20.25 7.44365 16.5563 3.75 12 3.75Z" />
</svg>
