<svg width="24" height="24" viewBox="0 0 24 24"  xmlns="http://www.w3.org/2000/svg">
<path d="M3.74045 3.75171C4.15466 3.75171 4.49045 4.0875 4.49045 4.50171V15.0027H18.4295L15.9597 12.5326C15.6668 12.2397 15.6669 11.7648 15.9598 11.472C16.2527 11.1791 16.7276 11.1791 17.0204 11.472L20.7703 15.2224C21.0632 15.5153 21.0632 15.9901 20.7703 16.283L17.0204 20.0333C16.7276 20.3263 16.2527 20.3263 15.9598 20.0334C15.6669 19.7405 15.6668 19.2657 15.9597 18.9728L18.4295 16.5027H3.74045C3.32623 16.5027 2.99045 16.1669 2.99045 15.7527V4.50171C2.99045 4.0875 3.32623 3.75171 3.74045 3.75171Z" />
</svg>
