<svg width="24" height="24" viewBox="0 0 24 24"  xmlns="http://www.w3.org/2000/svg">
<path d="M3.73932 3.75232C3.73932 4.16653 4.07511 4.50232 4.48932 4.50232L14.9903 4.50232L14.9903 18.4413L12.5202 15.9716C12.2273 15.6787 11.7524 15.6787 11.4596 15.9717C11.1667 16.2646 11.1667 16.7394 11.4596 17.0323L15.21 20.7822C15.5029 21.075 15.9777 21.075 16.2706 20.7822L20.021 17.0323C20.3139 16.7394 20.3139 16.2646 20.021 15.9717C19.7281 15.6787 19.2533 15.6787 18.9604 15.9716L16.4903 18.4413L16.4903 3.75232C16.4903 3.33811 16.1545 3.00232 15.7403 3.00232L4.48932 3.00232C4.07511 3.00232 3.73932 3.33811 3.73932 3.75232Z" />
</svg>
