<svg width="24" height="24" viewBox="0 0 24 24"  xmlns="http://www.w3.org/2000/svg">
<path d="M3.74045 3.74939C4.15466 3.74939 4.49045 4.08518 4.49045 4.49939V15.0004H18.4295L15.9597 12.5303C15.6668 12.2374 15.6669 11.7625 15.9598 11.4696C16.2527 11.1768 16.7276 11.1768 17.0204 11.4697L20.7703 15.2201C21.0632 15.513 21.0632 15.9878 20.7703 16.2807L17.0204 20.031C16.7276 20.3239 16.2527 20.324 15.9598 20.0311C15.6669 19.7382 15.6668 19.2633 15.9597 18.9704L18.4295 16.5004H3.74045C3.32623 16.5004 2.99045 16.1646 2.99045 15.7504V4.49939C2.99045 4.08518 3.32623 3.74939 3.74045 3.74939Z" />
</svg>
