<svg width="24" height="24" viewBox="0 0 24 24"  xmlns="http://www.w3.org/2000/svg">
<path d="M12.0002 11.993C11.586 11.993 11.2502 12.3288 11.2502 12.743V12.7486C11.2502 13.1629 11.586 13.4987 12.0002 13.4987H12.0058C12.4201 13.4987 12.7559 13.1629 12.7559 12.7486V12.743C12.7559 12.3288 12.4201 11.993 12.0058 11.993H12.0002Z" />
<path d="M11.9995 16.4934C11.5852 16.4934 11.2494 16.8292 11.2494 17.2435V17.2491C11.2494 17.6633 11.5852 17.9991 11.9995 17.9991H12.0051C12.4193 17.9991 12.7551 17.6633 12.7551 17.2491V17.2435C12.7551 16.8292 12.4193 16.4934 12.0051 16.4934H11.9995Z" />
<path d="M8.99867 17.2442C8.99867 16.83 9.33447 16.4942 9.74871 16.4942H9.75433C10.1686 16.4942 10.5044 16.83 10.5044 17.2442V17.2498C10.5044 17.6641 10.1686 17.9999 9.75433 17.9999H9.74871C9.33447 17.9999 8.99867 17.6641 8.99867 17.2498V17.2442Z" />
<path d="M7.49867 16.4934C7.08444 16.4934 6.74864 16.8292 6.74864 17.2435V17.2491C6.74864 17.6633 7.08444 17.9991 7.49867 17.9991H7.5043C7.91853 17.9991 8.25433 17.6633 8.25433 17.2491V17.2435C8.25433 16.8292 7.91853 16.4934 7.5043 16.4934H7.49867Z" />
<path d="M13.4987 14.9967C13.4987 14.5825 13.8345 14.2467 14.2488 14.2467H14.2544C14.6686 14.2467 15.0044 14.5825 15.0044 14.9967V15.0023C15.0044 15.4166 14.6686 15.7524 14.2544 15.7524H14.2488C13.8345 15.7524 13.4987 15.4166 13.4987 15.0023V14.9967Z" />
<path d="M14.2495 16.4942C13.8353 16.4942 13.4995 16.83 13.4995 17.2442V17.2498C13.4995 17.6641 13.8353 17.9999 14.2495 17.9999H14.2551C14.6694 17.9999 15.0052 17.6641 15.0052 17.2498V17.2442C15.0052 16.83 14.6694 16.4942 14.2551 16.4942H14.2495Z" />
<path d="M15.7495 14.9952C15.7495 14.581 16.0853 14.2452 16.4995 14.2452H16.5052C16.9194 14.2452 17.2552 14.581 17.2552 14.9952V15.0009C17.2552 15.4151 16.9194 15.7509 16.5052 15.7509H16.4995C16.0853 15.7509 15.7495 15.4151 15.7495 15.0009V14.9952Z" />
<path d="M13.4979 12.743C13.4979 12.3288 13.8337 11.993 14.248 11.993H16.498C16.9122 11.993 17.248 12.3288 17.248 12.743C17.248 13.1572 16.9122 13.4931 16.498 13.4931H14.248C13.8337 13.4931 13.4979 13.1572 13.4979 12.743Z" />
<path d="M6.74793 14.9932C6.74793 14.579 7.08373 14.2432 7.49796 14.2432H11.998C12.4122 14.2432 12.748 14.579 12.748 14.9932C12.748 15.4075 12.4122 15.7433 11.998 15.7433H7.49796C7.08373 15.7433 6.74793 15.4075 6.74793 14.9932Z" />
<path fill-rule="evenodd" clip-rule="evenodd" d="M17.9998 2.99314C17.9998 2.57891 17.664 2.2431 17.2497 2.2431C16.8355 2.2431 16.4997 2.57891 16.4997 2.99314V4.49206H7.49945V2.99448C7.49945 2.58025 7.16365 2.24444 6.74942 2.24444C6.33518 2.24444 5.99938 2.58025 5.99938 2.99448V4.49206H5.24799C3.59107 4.49206 2.24786 5.83527 2.24786 7.49222V18.7435C2.24786 20.4004 3.59107 21.7437 5.248 21.7437H18.7478C20.4047 21.7437 21.7479 20.4004 21.7479 18.7435V7.49222C21.7479 5.83528 20.4047 4.49206 18.7478 4.49206H17.9998V2.99314ZM3.74793 18.7435V11.2431C3.74793 10.4146 4.41953 9.74298 5.24799 9.74298H18.7478C19.5763 9.74298 20.2479 10.4146 20.2479 11.2431V18.7435C20.2479 19.572 19.5763 20.2436 18.7478 20.2436H5.248C4.41953 20.2436 3.74793 19.572 3.74793 18.7435Z" />
</svg>
