<svg width="24" height="24" viewBox="0 0 24 24"  xmlns="http://www.w3.org/2000/svg">
<path d="M7.125 12C7.125 11.3787 7.62868 10.875 8.25 10.875C8.87132 10.875 9.375 11.3787 9.375 12C9.375 12.6213 8.87132 13.125 8.25 13.125C7.62868 13.125 7.125 12.6213 7.125 12Z" />
<path d="M10.875 12C10.875 11.3787 11.3787 10.875 12 10.875C12.6213 10.875 13.125 11.3787 13.125 12C13.125 12.6213 12.6213 13.125 12 13.125C11.3787 13.125 10.875 12.6213 10.875 12Z" />
<path d="M14.625 12C14.625 11.3787 15.1287 10.875 15.75 10.875C16.3713 10.875 16.875 11.3787 16.875 12C16.875 12.6213 16.3713 13.125 15.75 13.125C15.1287 13.125 14.625 12.6213 14.625 12Z" />
<path fill-rule="evenodd" clip-rule="evenodd" d="M5.33678 21.7178C5.15724 21.7003 4.97926 21.6757 4.80365 21.6442C4.5396 21.597 4.3209 21.4123 4.23008 21.1599C4.13927 20.9075 4.19016 20.6258 4.36357 20.4211C4.76687 19.9451 5.05254 19.3685 5.17822 18.7349C5.20107 18.6196 5.15571 18.4182 4.92371 18.1923C3.2746 16.5871 2.25 14.4086 2.25 12C2.25 6.96934 6.67799 3 12 3C17.322 3 21.75 6.96934 21.75 12C21.75 17.0307 17.322 21 12 21C11.1668 21 10.3569 20.9034 9.58316 20.7213C8.54446 21.3731 7.3153 21.75 6 21.75C5.77643 21.75 5.55508 21.7391 5.33678 21.7178ZM12 4.5C7.38089 4.5 3.75 7.91796 3.75 12C3.75 13.9686 4.58481 15.7692 5.96997 17.1175C6.4057 17.5416 6.808 18.2279 6.64955 19.0267C6.56488 19.4536 6.42854 19.8617 6.24738 20.2443C7.27513 20.1967 8.22415 19.8541 9.01402 19.2992C9.19635 19.1711 9.42619 19.1307 9.64126 19.189C10.3875 19.3911 11.179 19.5 12 19.5C16.6191 19.5 20.25 16.082 20.25 12C20.25 7.91796 16.6191 4.5 12 4.5Z" />
</svg>
