<svg width="24" height="24" viewBox="0 0 24 24"  xmlns="http://www.w3.org/2000/svg">
<path fill-rule="evenodd" clip-rule="evenodd" d="M13.28 11.47C13.4205 11.6107 13.4994 11.8013 13.4994 12C13.4994 12.1988 13.4205 12.3894 13.28 12.53L5.78003 20.03C5.63785 20.1625 5.44981 20.2346 5.25551 20.2312C5.06121 20.2278 4.87582 20.1491 4.73841 20.0117C4.60099 19.8742 4.52228 19.6889 4.51885 19.4946C4.51543 19.3003 4.58755 19.1122 4.72003 18.97L11.69 12L4.72003 5.03003C4.58755 4.88785 4.51543 4.69981 4.51885 4.50551C4.52228 4.31121 4.60099 4.12582 4.73841 3.98841C4.87582 3.85099 5.06121 3.77228 5.25551 3.76885C5.44981 3.76543 5.63785 3.83755 5.78003 3.97003L13.28 11.47Z" />
<path fill-rule="evenodd" clip-rule="evenodd" d="M19.28 11.47C19.4205 11.6107 19.4994 11.8013 19.4994 12C19.4994 12.1988 19.4205 12.3894 19.28 12.53L11.78 20.03C11.7114 20.1037 11.6286 20.1628 11.5366 20.2038C11.4446 20.2448 11.3453 20.2668 11.2446 20.2686C11.1438 20.2704 11.0438 20.2519 10.9504 20.2142C10.857 20.1764 10.7722 20.1203 10.701 20.0491C10.6298 19.9778 10.5736 19.893 10.5359 19.7996C10.4982 19.7062 10.4797 19.6062 10.4814 19.5055C10.4832 19.4048 10.5053 19.3055 10.5462 19.2135C10.5872 19.1215 10.6463 19.0387 10.72 18.97L17.69 12L10.72 5.03003C10.5876 4.88785 10.5154 4.69981 10.5189 4.50551C10.5223 4.31121 10.601 4.12582 10.7384 3.98841C10.8758 3.85099 11.0612 3.77228 11.2555 3.76885C11.4498 3.76543 11.6379 3.83755 11.78 3.97003L19.28 11.47Z" />
</svg>
