<svg width="24" height="24" viewBox="0 0 24 24"  xmlns="http://www.w3.org/2000/svg">
<path d="M12.2764 3.91796C12.571 3.67765 13.0057 3.69512 13.2803 3.96972C13.5549 4.24433 13.5723 4.67905 13.332 4.97363L13.2803 5.03027L6.31055 12L13.2803 18.9697L13.332 19.0264C13.5723 19.3209 13.5549 19.7557 13.2803 20.0303C13.0057 20.3049 12.571 20.3223 12.2764 20.082L12.2197 20.0303L4.71973 12.5303C4.42684 12.2374 4.42684 11.7626 4.71973 11.4697L12.2197 3.96972L12.2764 3.91796ZM18.2764 3.91796C18.571 3.67765 19.0057 3.69512 19.2803 3.96972C19.5549 4.24433 19.5723 4.67905 19.332 4.97363L19.2803 5.03027L12.3106 12L19.2803 18.9697L19.332 19.0264C19.5723 19.3209 19.5549 19.7557 19.2803 20.0303C19.0057 20.3049 18.571 20.3223 18.2764 20.082L18.2197 20.0303L10.7197 12.5303C10.4268 12.2374 10.4268 11.7626 10.7197 11.4697L18.2197 3.96972L18.2764 3.91796Z" />
</svg>
