<svg width="24" height="24" viewBox="0 0 24 24"  xmlns="http://www.w3.org/2000/svg">
<path fill-rule="evenodd" clip-rule="evenodd" d="M8.25 12C8.25 9.92896 9.92893 8.25002 12 8.25002C14.0711 8.25002 15.75 9.92896 15.75 12C15.75 14.0711 14.0711 15.75 12 15.75C9.92893 15.75 8.25 14.0711 8.25 12ZM12 9.75002C10.7574 9.75002 9.75 10.7574 9.75 12C9.75 13.2427 10.7574 14.25 12 14.25C13.2426 14.25 14.25 13.2427 14.25 12C14.25 10.7574 13.2426 9.75002 12 9.75002Z" />
<path fill-rule="evenodd" clip-rule="evenodd" d="M9.60283 3.81675C9.75351 2.91265 10.5357 2.25 11.4523 2.25H12.5463C13.4629 2.25 14.2451 2.91265 14.3958 3.81675L14.5447 4.71056C14.5657 4.83641 14.6713 4.98674 14.8734 5.07065C15.0705 5.15249 15.2466 5.12247 15.3538 5.04587L16.0914 4.51903C16.8372 3.98629 17.8589 4.07084 18.507 4.71896L19.2806 5.49251C19.9287 6.14062 20.0133 7.16231 19.4805 7.90816L18.9535 8.64599C18.877 8.75314 18.8469 8.92906 18.9287 9.12606C19.0126 9.32803 19.1628 9.43358 19.2886 9.45453L20.1825 9.60353C21.0866 9.75421 21.7493 10.5364 21.7493 11.453V12.547C21.7493 13.4636 21.0866 14.2458 20.1825 14.3965L19.2887 14.5454C19.1629 14.5664 19.0126 14.672 18.9287 14.8741C18.8468 15.0712 18.8768 15.2472 18.9534 15.3545L19.4802 16.0919C20.0129 16.8378 19.9284 17.8594 19.2802 18.5076L18.5067 19.2811C17.8586 19.9292 16.8369 20.0138 16.0911 19.481L15.3534 18.9542C15.2463 18.8776 15.0703 18.8476 14.8733 18.9294C14.6713 19.0133 14.5657 19.1635 14.5448 19.2893L14.3958 20.1832C14.2451 21.0874 13.4629 21.75 12.5463 21.75H11.4523C10.5357 21.75 9.75351 21.0874 9.60283 20.1832L9.45386 19.2894C9.43288 19.1636 9.32727 19.0133 9.12519 18.9294C8.92808 18.8475 8.75205 18.8775 8.64483 18.9541L7.90721 19.481C7.16136 20.0138 6.13967 19.9292 5.49156 19.2811L4.71801 18.5075C4.06989 17.8594 3.98534 16.8377 4.51809 16.0919L5.04512 15.354C5.12165 15.2469 5.15167 15.071 5.06988 14.874C4.98602 14.672 4.83577 14.5664 4.71002 14.5455L3.81605 14.3965C2.91195 14.2458 2.2493 13.4636 2.2493 12.547V11.453C2.2493 10.5364 2.91195 9.75421 3.81605 9.60353L4.70986 9.45456C4.8357 9.43359 4.98604 9.32796 5.06995 9.12587C5.1518 8.92875 5.12177 8.7527 5.04517 8.64547L4.51848 7.90809C3.98573 7.16224 4.07029 6.14056 4.7184 5.49244L5.49195 4.71889C6.14007 4.07078 7.16175 3.98622 7.9076 4.51897L8.6452 5.04583C8.75235 5.12237 8.9283 5.15239 9.12532 5.07059C9.32732 4.98673 9.43288 4.83646 9.45384 4.7107L9.60283 3.81675ZM11.4523 3.75C11.269 3.75 11.1126 3.88253 11.0824 4.06335L10.9334 4.9573C10.813 5.67991 10.2928 6.21002 9.70048 6.45594C9.10285 6.70406 8.36633 6.68999 7.77334 6.26643L7.03574 5.73957C6.88657 5.63302 6.68223 5.64993 6.55261 5.77955L5.77906 6.5531C5.64944 6.68273 5.63253 6.88706 5.73908 7.03623L6.26577 7.77361C6.68941 8.3667 6.70345 9.10335 6.45529 9.70106C6.20932 10.2935 5.67916 10.8137 4.95645 10.9342L4.06265 11.0831C3.88183 11.1133 3.7493 11.2697 3.7493 11.453V12.547C3.7493 12.7303 3.88183 12.8867 4.06265 12.9169L4.95662 13.0659C5.67922 13.1863 6.20931 13.7065 6.45523 14.2988C6.70334 14.8964 6.68927 15.6329 6.26572 16.2259L5.73868 16.9637C5.63214 17.1129 5.64905 17.3172 5.77867 17.4469L6.55222 18.2204C6.68184 18.35 6.88618 18.367 7.03535 18.2604L7.77297 17.7335C8.36604 17.3099 9.10268 17.2959 9.70038 17.544C10.2928 17.79 10.813 18.3201 10.9334 19.0428L11.0824 19.9367C11.1126 20.1175 11.269 20.25 11.4523 20.25H12.5463C12.7296 20.25 12.886 20.1175 12.9162 19.9366L13.0652 19.0427C13.1856 18.3201 13.7058 17.79 14.2981 17.5441C14.8958 17.2959 15.6323 17.31 16.2253 17.7336L16.9629 18.2604C17.1121 18.367 17.3164 18.3501 17.446 18.2204L18.2196 17.4469C18.3492 17.3173 18.3661 17.1129 18.2596 16.9638L17.7328 16.2263C17.3092 15.6333 17.2952 14.8966 17.5433 14.2989C17.7893 13.7065 18.3194 13.1863 19.0421 13.0659L19.9359 12.9169C20.1168 12.8867 20.2493 12.7303 20.2493 12.547V11.453C20.2493 11.2697 20.1168 11.1133 19.9359 11.0831L19.042 10.9341C18.3194 10.8137 17.7893 10.2935 17.5434 9.70121C17.2953 9.1036 17.3093 8.3671 17.7329 7.77414L18.2599 7.0363C18.3665 6.88713 18.3496 6.68279 18.2199 6.55317L17.4464 5.77962C17.3168 5.65 17.1124 5.63309 16.9632 5.73964L16.2257 6.26647C15.6326 6.6901 14.8959 6.70415 14.2982 6.45599C13.7058 6.21002 13.1856 5.67986 13.0651 4.95716L12.9162 4.06335C12.886 3.88253 12.7296 3.75 12.5463 3.75H11.4523Z" />
</svg>
