<svg width="24" height="24" viewBox="0 0 24 24"  xmlns="http://www.w3.org/2000/svg">
<path fill-rule="evenodd" clip-rule="evenodd" d="M12 2.7535C11.3813 1.98888 10.4352 1.5 9.375 1.5C7.51104 1.5 6 3.01104 6 4.875C6 5.5688 6.20935 6.21371 6.56833 6.75H3.375C2.33947 6.75 1.5 7.58947 1.5 8.625V10.125C1.5 11.0321 2.14416 11.7888 3 11.9625V19.5C3 20.7426 4.00736 21.75 5.25 21.75H19.5C20.7426 21.75 21.75 20.7426 21.75 19.5V11.9625C22.6058 11.7888 23.25 11.0321 23.25 10.125V8.625C23.25 7.58947 22.4105 6.75 21.375 6.75H17.4317C17.7906 6.21371 18 5.5688 18 4.875C18 3.01104 16.489 1.5 14.625 1.5C13.5648 1.5 12.6187 1.98888 12 2.7535ZM9.375 3C8.33947 3 7.5 3.83947 7.5 4.875C7.5 5.91053 8.33947 6.75 9.375 6.75H11.25V4.875C11.25 3.83947 10.4105 3 9.375 3ZM12.75 8.25V10.5H21.375C21.5821 10.5 21.75 10.3321 21.75 10.125V8.625C21.75 8.41789 21.5821 8.25 21.375 8.25H12.75ZM20.25 12H12.75V20.25H19.5C19.9142 20.25 20.25 19.9142 20.25 19.5V12ZM11.25 20.25V12H4.5V19.5C4.5 19.9142 4.83579 20.25 5.25 20.25H11.25ZM11.25 10.5V8.25H3.375C3.16789 8.25 3 8.41789 3 8.625V10.125C3 10.3321 3.16789 10.5 3.375 10.5H11.25ZM12.75 6.75H14.625C15.6605 6.75 16.5 5.91053 16.5 4.875C16.5 3.83947 15.6605 3 14.625 3C13.5895 3 12.75 3.83947 12.75 4.875V6.75Z" />
</svg>
