<svg width="24" height="24" viewBox="0 0 24 24"  xmlns="http://www.w3.org/2000/svg">
<path fill-rule="evenodd" clip-rule="evenodd" d="M14 2.25C13.1716 2.25 12.5 2.92157 12.5 3.75V4.38338C12.5 4.86045 12.409 5.33314 12.2318 5.77609C12.013 6.323 11.542 6.77859 10.923 7.10824C9.71624 7.7509 8.66108 8.63943 7.82395 9.70683C7.57133 10.0289 7.26349 10.2645 6.93757 10.3918C6.71829 10.0196 6.32726 9.75 5.80212 9.75H4.74936C3.66013 9.75 2.5693 10.3469 2.13372 11.4521C1.56309 12.9001 1.25 14.4769 1.25 16.125C1.25 17.4201 1.44333 18.6713 1.80321 19.8508C2.17433 21.0672 3.3306 21.75 4.49289 21.75H5.40067C6.27506 21.75 6.79452 20.9854 6.73004 20.25H7.26975C7.67281 20.25 8.07323 20.315 8.4556 20.4424L11.5701 21.4806C12.1054 21.659 12.666 21.75 13.2302 21.75H17.2462C18.0576 21.75 18.8853 21.4243 19.4351 20.7416C21.1957 18.5556 22.25 15.7749 22.25 12.75C22.25 12.2893 22.2255 11.834 22.1778 11.3855C22.0214 9.91648 20.7167 9 19.3777 9H16.2519C16.2489 9 16.2494 8.9995 16.2494 8.9995C16.2448 8.99652 16.2304 8.98495 16.2157 8.9582C16.1825 8.89735 16.1845 8.83077 16.2039 8.78987C16.7146 7.71628 17 6.51542 17 5.25C17 3.59315 15.6569 2.25 14 2.25ZM4.25 16.125C4.25 14.3504 4.72475 12.6847 5.55452 11.25H4.74936C4.17454 11.25 3.7038 11.5592 3.52926 12.0021C3.02652 13.2778 2.75 14.6682 2.75 16.125C2.75 17.2701 2.92084 18.3739 3.23791 19.4131C3.3855 19.8968 3.87775 20.25 4.49289 20.25H5.16322C5.0912 20.096 5.02309 19.9397 4.959 19.7814C4.50154 18.6513 4.25 17.4166 4.25 16.125ZM9.00425 10.6325C8.49562 11.281 7.75421 11.81 6.87781 11.9584C6.16107 13.1806 5.75 14.6037 5.75 16.125C5.75 17.0438 5.8999 17.9262 6.17618 18.75H7.26975C7.83403 18.75 8.39462 18.841 8.92995 19.0194L12.0444 20.0576C12.4268 20.185 12.8272 20.25 13.2302 20.25H17.2462C17.6708 20.25 18.0415 20.0807 18.2669 19.8008C19.8206 17.8716 20.75 15.4204 20.75 12.75C20.75 12.3424 20.7284 11.9402 20.6862 11.5443C20.6252 10.9715 20.092 10.5 19.3777 10.5H16.2519C16.2018 10.5 16.1526 10.4976 16.1045 10.493C16.071 10.4976 16.0367 10.5 16.0019 10.5H13.75C13.3358 10.5 13 10.1642 13 9.75C13 9.33579 13.3358 9 13.75 9H14.6959C14.6719 8.71845 14.717 8.42374 14.8493 8.14554C15.2663 7.26899 15.5 6.28784 15.5 5.25C15.5 4.42157 14.8284 3.75 14 3.75V4.38338C14 5.05128 13.8726 5.71305 13.6245 6.33318C13.2355 7.30556 12.4534 7.99267 11.6281 8.43219C10.6071 8.97589 9.71344 9.72825 9.00425 10.6325Z" />
</svg>
