<svg width="24" height="24" viewBox="0 0 24 24"  xmlns="http://www.w3.org/2000/svg">
<path d="M15.73 5.5H16.765C17.5729 6.72385 18.0024 8.15854 18 9.625C18.0024 11.0915 17.5729 12.5262 16.765 13.75H16.617C15.811 13.75 15.083 14.196 14.586 14.83C13.8098 15.8204 12.8353 16.6378 11.725 17.23C11.002 17.614 10.375 18.186 10.072 18.945C9.85922 19.4768 9.74993 20.0443 9.75 20.617V21.25C9.75 21.4489 9.67098 21.6397 9.53033 21.7803C9.38968 21.921 9.19891 22 9 22C8.40326 22 7.83097 21.7629 7.40901 21.341C6.98705 20.919 6.75 20.3467 6.75 19.75C6.75 18.598 7.01 17.507 7.473 16.532C7.739 15.974 7.366 15.25 6.748 15.25H3.622C2.596 15.25 1.677 14.556 1.568 13.535C1.52263 13.1082 1.49993 12.6792 1.5 12.25C1.5 9.402 2.492 6.786 4.149 4.729C4.537 4.247 5.136 4 5.754 4H9.77C10.2536 3.99971 10.7341 4.07737 11.193 4.23L14.307 5.27C14.7659 5.42263 15.2464 5.5003 15.73 5.5ZM21.669 14.023C22.205 12.661 22.5 11.178 22.5 9.625C22.5 8.405 22.318 7.227 21.98 6.118C21.72 5.268 20.896 4.75 20.007 4.75H19.1C18.655 4.75 18.38 5.248 18.577 5.648C19.168 6.848 19.501 8.198 19.501 9.625C19.5038 11.2704 19.0533 12.8848 18.199 14.291C17.954 14.694 18.227 15.25 18.699 15.25H19.752C20.584 15.25 21.363 14.797 21.669 14.023Z" />
</svg>
