<svg width="24" height="24" viewBox="0 0 24 24"  xmlns="http://www.w3.org/2000/svg">
<path fill-rule="evenodd" clip-rule="evenodd" d="M18.0188 2.26884C19.044 1.24372 20.706 1.24372 21.7311 2.26884C22.7563 3.29397 22.7563 4.95603 21.7311 5.98116L7.3625 20.3498C6.74571 20.9666 5.98496 21.42 5.14899 21.669L2.4641 22.4688C2.20017 22.5474 1.91439 22.4751 1.71966 22.2803C1.52493 22.0856 1.45258 21.7998 1.5312 21.5359L2.33098 18.851C2.58 18.015 3.03339 17.2543 3.65018 16.6375L18.0188 2.26884ZM20.6705 3.3295C20.2311 2.89017 19.5188 2.89017 19.0795 3.3295L17.9223 4.48667L19.5133 6.07766L20.6705 4.9205C21.1098 4.48116 21.1098 3.76884 20.6705 3.3295ZM18.4527 7.13832L16.8617 5.54733L4.71084 17.6982C4.27028 18.1387 3.94643 18.6821 3.76856 19.2792L3.36457 20.6354L4.72076 20.2314C5.31789 20.0536 5.86128 19.7297 6.30184 19.2891L18.4527 7.13832Z" />
</svg>
