<svg width="24" height="24" viewBox="0 0 24 24"  xmlns="http://www.w3.org/2000/svg">
<path d="M14.9995 6C14.9995 4.34315 13.6564 3 11.9995 3C10.3429 3.00026 8.99951 4.34331 8.99951 6V6.75H14.9995V6ZM5.51318 8.25C5.34524 8.25 5.20068 8.36098 5.15381 8.5166L5.14014 8.58594L3.87647 20.5859C3.8533 20.8072 4.027 20.9999 4.24951 21H19.7505C19.973 20.9999 20.1467 20.8072 20.1235 20.5859L18.8599 8.58594C18.8398 8.39508 18.6787 8.25 18.4868 8.25H16.4995V9.66211C16.7296 9.8681 16.8745 10.1668 16.8745 10.5C16.8745 11.1213 16.3708 11.625 15.7495 11.625C15.1673 11.6248 14.688 11.1823 14.6304 10.6152L14.6245 10.5L14.6304 10.3848C14.6595 10.0987 14.7968 9.84497 14.9995 9.66309V8.25H8.99951V9.66211C9.22964 9.8681 9.37451 10.1668 9.37451 10.5C9.37451 11.1213 8.87083 11.625 8.24951 11.625C7.6673 11.6248 7.18804 11.1823 7.13037 10.6152L7.12451 10.5L7.13037 10.3848C7.15947 10.0987 7.29681 9.84497 7.49951 9.66309V8.25H5.51318ZM16.4995 6.75H18.4868C19.4464 6.75 20.2516 7.47444 20.3521 8.42871L21.6147 20.4287C21.7313 21.5357 20.8636 22.4999 19.7505 22.5H4.24951C3.13638 22.4999 2.26873 21.5357 2.38525 20.4287L3.64795 8.42871L3.67529 8.25293C3.84988 7.38691 4.61352 6.75 5.51318 6.75H7.49951V6C7.49951 3.51488 9.51445 1.50026 11.9995 1.5C14.4848 1.5 16.4995 3.51472 16.4995 6V6.75Z" />
</svg>
